if (_typeface_js && _typeface_js.loadFace) _typeface_js.loadFace({"glyphs":{"S":{"x_min":28.9375,"x_max":763.890625,"ha":794,"o":"m 416 937 q 573 920 492 937 q 723 860 654 902 l 723 628 q 557 704 636 682 q 413 725 479 725 q 330 710 359 725 q 300 668 300 696 q 333 620 300 637 q 436 582 365 602 q 601 522 533 554 q 716 433 669 490 q 763 286 763 375 q 710 126 763 193 q 567 23 657 58 q 367 -11 477 -11 q 205 10 286 -11 q 28 83 124 31 l 28 325 q 209 234 112 268 q 383 200 306 200 q 473 218 437 200 q 509 271 509 237 q 484 319 509 299 q 427 349 459 338 q 344 374 396 359 q 183 434 247 400 q 82 523 118 469 q 46 656 46 577 q 94 811 46 748 q 225 906 141 874 q 416 937 309 937 "},"F":{"x_min":79.078125,"x_max":733.984375,"ha":742,"o":"m 676 552 l 676 349 l 333 349 l 333 0 l 79 0 l 79 925 l 733 925 l 733 713 l 333 713 l 333 552 l 676 552 "},"T":{"x_min":19.28125,"x_max":788.96875,"ha":809,"o":"m 276 0 l 276 713 l 19 713 l 19 925 l 788 925 l 788 713 l 531 713 l 531 0 l 276 0 "},"N":{"x_min":74.265625,"x_max":1012.734375,"ha":1089,"o":"m 318 0 l 74 0 l 74 925 l 345 925 l 768 376 l 768 925 l 1012 925 l 1012 0 l 741 0 l 318 549 l 318 0 "},"K":{"x_min":79.078125,"x_max":991.515625,"ha":1010,"o":"m 333 925 l 333 0 l 79 0 l 79 925 l 333 925 m 345 491 l 623 925 l 933 925 l 635 499 l 991 0 l 670 0 l 345 491 "},"Y":{"x_min":6.75,"x_max":961.609375,"ha":968,"o":"m 356 435 l 6 925 l 325 925 l 489 663 l 652 925 l 961 925 l 611 435 l 611 0 l 356 0 l 356 435 "},"E":{"x_min":79.078125,"x_max":733.984375,"ha":796,"o":"m 676 570 l 676 366 l 333 366 l 333 212 l 733 212 l 733 0 l 79 0 l 79 925 l 733 925 l 733 713 l 333 713 l 333 570 l 676 570 "},"V":{"x_min":18.328125,"x_max":1010.796875,"ha":1031,"o":"m 299 925 l 515 327 l 730 925 l 1010 925 l 652 0 l 377 0 l 18 925 l 299 925 "},"Z":{"x_min":45.328125,"x_max":815.96875,"ha":862,"o":"m 815 0 l 45 0 l 45 212 l 488 713 l 45 713 l 45 925 l 815 925 l 815 713 l 372 212 l 815 212 l 815 0 "},"Q":{"x_min":19.28125,"x_max":1020.4375,"ha":1042,"o":"m 1020 462 q 990 296 1020 374 q 905 156 960 217 l 1020 0 l 762 0 l 737 33 q 519 -11 634 -11 q 268 50 382 -11 q 86 220 153 111 q 19 462 19 328 q 86 705 19 597 q 268 875 153 814 q 519 937 382 937 q 771 875 656 937 q 953 705 886 814 q 1020 462 1020 597 m 519 226 q 589 237 554 226 l 508 347 l 717 347 q 744 462 744 399 q 714 585 744 531 q 633 669 684 639 q 519 699 581 699 q 406 669 458 699 q 325 585 354 639 q 295 462 295 531 q 325 340 295 394 q 406 256 354 286 q 519 226 458 226 "},"M":{"x_min":80.046875,"x_max":1140.046875,"ha":1222,"o":"m 672 242 l 542 242 l 324 557 l 324 0 l 80 0 l 80 925 l 364 925 l 611 576 l 850 925 l 1140 925 l 1140 0 l 885 0 l 885 558 l 672 242 "},"C":{"x_min":19.28125,"x_max":825.609375,"ha":872,"o":"m 498 937 q 679 916 603 937 q 825 855 755 895 l 825 581 q 535 699 694 699 q 413 670 467 699 q 326 587 358 641 q 295 462 295 533 q 326 338 295 392 q 413 255 358 284 q 535 226 467 226 q 825 344 694 226 l 825 70 q 684 8 760 27 q 498 -11 608 -11 q 257 50 367 -11 q 83 220 147 111 q 19 462 19 328 q 83 705 19 597 q 257 875 147 814 q 498 937 367 937 "},"L":{"x_min":81.984375,"x_max":736.875,"ha":747,"o":"m 81 0 l 81 925 l 336 925 l 336 238 l 736 238 l 736 0 l 81 0 "},"A":{"x_min":18.328125,"x_max":1010.796875,"ha":1031,"o":"m 377 925 l 652 925 l 1010 0 l 756 0 l 688 189 l 341 189 l 272 0 l 18 0 l 377 925 m 515 707 l 415 401 l 613 401 l 515 707 "},"J":{"x_min":-4.828125,"x_max":603.78125,"ha":684,"o":"m 603 353 q 563 161 603 243 q 447 33 523 79 q 265 -11 370 -11 q 115 10 187 -11 q -4 71 44 31 l -4 346 q 102 269 46 297 q 203 241 158 241 q 308 273 267 241 q 349 379 349 306 l 349 925 l 603 925 l 603 353 "},"O":{"x_min":19.28125,"x_max":1020.4375,"ha":1042,"o":"m 519 937 q 771 875 656 937 q 953 705 886 814 q 1020 462 1020 597 q 953 220 1020 328 q 771 50 886 111 q 519 -11 656 -11 q 268 50 382 -11 q 86 220 153 111 q 19 462 19 328 q 86 705 19 597 q 268 875 153 814 q 519 937 382 937 m 519 699 q 406 669 458 699 q 325 585 354 639 q 295 462 295 531 q 325 340 295 394 q 406 256 354 286 q 519 226 458 226 q 633 256 581 226 q 714 340 684 286 q 744 462 744 394 q 714 585 744 531 q 633 669 684 639 q 519 699 581 699 "},"W":{"x_min":-11.578125,"x_max":1400.46875,"ha":1389,"o":"m 532 0 l 277 0 l -11 925 l 243 925 l 405 358 l 567 925 l 821 925 l 983 358 l 1145 925 l 1400 925 l 1111 0 l 856 0 l 694 567 l 532 0 "}," ":{"x_min":0,"x_max":0,"ha":315},"X":{"x_min":6.75,"x_max":1013.703125,"ha":1020,"o":"m 506 300 l 314 0 l 6 0 l 353 479 l 35 925 l 353 925 l 515 665 l 677 925 l 984 925 l 666 487 l 1013 0 l 695 0 l 506 300 "},"P":{"x_min":79.078125,"x_max":828.5,"ha":852,"o":"m 480 925 q 654 881 574 925 q 781 759 734 836 q 828 593 828 682 q 781 426 828 502 q 654 305 734 350 q 480 260 574 260 l 333 260 l 333 0 l 79 0 l 79 925 l 480 925 m 448 472 q 533 507 498 472 q 569 593 569 543 q 533 678 569 643 q 448 713 498 713 l 333 713 l 333 472 l 448 472 "},"B":{"x_min":79.078125,"x_max":863.234375,"ha":904,"o":"m 470 925 q 646 894 570 925 q 763 804 722 862 q 805 673 805 747 q 779 571 805 618 q 706 491 753 525 q 820 399 778 458 q 863 268 863 341 q 819 128 863 190 q 696 33 775 67 q 513 0 617 0 l 79 0 l 79 925 l 470 925 m 462 571 q 526 594 501 571 q 550 651 550 617 q 526 707 550 684 q 462 731 501 731 l 333 731 l 333 571 l 462 571 m 504 194 q 579 222 549 194 q 608 290 608 249 q 579 358 608 330 q 504 385 549 385 l 333 385 l 333 194 l 504 194 "},"H":{"x_min":79.078125,"x_max":954.859375,"ha":1037,"o":"m 344 350 l 344 0 l 79 0 l 79 925 l 344 925 l 344 588 l 689 588 l 689 925 l 954 925 l 954 0 l 689 0 l 689 350 l 344 350 "},"D":{"x_min":79.078125,"x_max":973.1875,"ha":994,"o":"m 473 925 q 724 866 610 925 q 906 701 839 807 q 973 462 973 596 q 906 224 973 329 q 724 59 839 118 q 473 0 610 0 l 79 0 l 79 925 l 473 925 m 473 229 q 586 258 535 229 q 667 339 637 286 q 697 462 697 392 q 667 586 697 533 q 586 667 637 639 q 473 696 535 696 l 333 696 l 333 229 l 473 229 "},"R":{"x_min":81.015625,"x_max":886.375,"ha":910,"o":"m 481 925 q 656 881 575 925 q 783 759 736 836 q 830 593 830 682 q 790 440 830 510 q 683 326 751 370 l 886 0 l 595 0 l 433 260 l 335 260 l 335 0 l 81 0 l 81 925 l 481 925 m 450 472 q 535 507 500 472 q 570 593 570 543 q 535 678 570 643 q 450 713 500 713 l 335 713 l 335 472 l 450 472 "},"I":{"x_min":95.484375,"x_max":350.109375,"ha":448,"o":"m 350 925 l 350 0 l 95 0 l 95 925 l 350 925 "},"G":{"x_min":19.28125,"x_max":878.65625,"ha":930,"o":"m 545 937 q 719 918 626 937 q 878 856 812 899 l 878 598 q 728 672 813 645 q 562 699 643 699 q 366 635 437 699 q 295 461 295 571 q 327 329 295 386 q 419 241 360 272 q 553 209 477 209 q 608 214 576 209 q 666 229 639 219 l 666 347 l 519 347 l 519 533 l 878 533 l 878 89 q 708 14 801 40 q 526 -11 616 -11 q 269 50 384 -11 q 86 220 153 111 q 19 462 19 328 q 81 700 19 592 q 263 872 144 808 q 545 937 382 937 "},"U":{"x_min":71.375,"x_max":904.703125,"ha":979,"o":"m 904 400 q 848 183 904 276 q 697 39 792 89 q 488 -11 602 -11 q 277 38 372 -11 q 126 182 182 88 q 71 400 71 275 l 71 925 l 336 925 l 336 400 q 378 268 336 314 q 488 221 420 221 q 597 268 555 221 q 639 400 639 314 l 639 925 l 904 925 l 904 400 "}}}
